# xmcd
#
# Track frame offsets:
#	150
#	11124
#	26000
#	36267
#	51736
#	69022
#	83782
#	101503
#	119283
#	145641
#	157485
#
# Disc length: 2283 seconds
# Revision: 0
# Processed by: cddbd v1.5.2PL0 Copyright (c) Steve Scherf et al.
# Submitted via: dBpowerAMP V12.0
#
DISCID=9508e90b
DTITLE=RichmondFontaine,Portland,OR - The Fitzgerald
DYEAR=2005
DGENRE=AltCountry
TTITLE0=The Warehouse Life
TTITLE1=Welhorn Yards
TTITLE2=Black Road
TTITLE3=Incident At Conklin Creek
TTITLE4=Disappeared
TTITLE5=Casino Lights
TTITLE6=Exit 1948
TTITLE7=Laramie, Wyoming
TTITLE8=The Janitor
TTITLE9=Don't Look And It Won't Hurt
TTITLE10=Making It Back
EXTD=
EXTT0=
EXTT1=
EXTT2=
EXTT3=
EXTT4=
EXTT5=
EXTT6=
EXTT7=
EXTT8=
EXTT9=
EXTT10=
PLAYORDER=
